<svg id="Logo" xmlns="http://www.w3.org/2000/svg" viewBox="0 0 1496.73 307.46"><defs><style>.cls-1,.cls-4,.cls-5{isolation:isolate;}.cls-1{font-size:73.29px;font-family:Metropolis-Regular, Metropolis;letter-spacing:0.19em;}.cls-1,.cls-2,.cls-5{fill:#250c77;}.cls-2{font-size:233.4px;font-family:Metropolis-ExtraBold, Metropolis;font-weight:800;letter-spacing:-0.05em;}.cls-3{letter-spacing:-0.04em;}.cls-4{fill:#ed642b;}</style></defs><text class="cls-1" transform="translate(623.6 287.3)">Fueled By Passion</text><text class="cls-2" transform="translate(606.75 216.89)">c<tspan class="cls-3" x="117.63" y="0">onnect</tspan></text><path class="cls-4" d="M443.24,12.81A144,144,0,0,0,300.59,137.36q-.39,2.87-.66,5.76h87a58,58,0,1,1,.35,28.6H300.06c7.51,72.37,68.85,129,143.18,129,79.37,0,144-64.58,144-143.95S522.61,12.81,443.24,12.81Z" transform="translate(-12.66 -12.81)"/><path class="cls-5" d="M156.61,214.71a58,58,0,1,1,56.32-71.59h87c-6.9-73-68.53-130.31-143.31-130.31-79.37,0-144,64.58-144,144s64.58,144,144,144c74.33,0,135.67-56.62,143.18-129H212.6A58.05,58.05,0,0,1,156.61,214.71Z" transform="translate(-12.66 -12.81)"/></svg>